<svg xmlns="http://www.w3.org/2000/svg" width="56" height="40" viewBox="0 0 56.25 40"><path d="M1.45 36h53.34c.78 0 1.41.45 1.41 1s-.63 1-1.41 1H1.45c-.77 0-1.4-.45-1.4-1s.63-1 1.4-1Zm0-34h53.34c.78 0 1.41.45 1.41 1s-.63 1-1.41 1H1.45C.68 4 .05 3.55.05 3s.63-1 1.4-1Z"/><path fill="none" d="M28.25 14.81a2.32 2.32 0 0 0-2.06 1.29 7.57 7.57 0 0 0-.78 3.9 7.89 7.89 0 0 0 .77 3.91 2.29 2.29 0 0 0 4.13 0 7.78 7.78 0 0 0 .77-3.91 7.57 7.57 0 0 0-.78-3.85 2.32 2.32 0 0 0-2.05-1.34Z"/><path d="M.25 14.77v2.82l3.45-2.16h.09v12.04h3.18V12.41H3.98L.25 14.77zm18.1 3.36a4.59 4.59 0 0 0-2.43-.64 4.15 4.15 0 0 0-1.79.37 2.82 2.82 0 0 0-1.2.92h-.09l.39-3.78h6.58v-2.6H10.6l-.71 7.94 2.83.51a2.32 2.32 0 0 1 1-.75 3.16 3.16 0 0 1 1.28-.26 2.74 2.74 0 0 1 1.35.35 2.38 2.38 0 0 1 .92.94 2.87 2.87 0 0 1 .33 1.4 2.77 2.77 0 0 1-.32 1.37 2.42 2.42 0 0 1-.91.94 2.59 2.59 0 0 1-1.32.33 2.56 2.56 0 0 1-1.63-.54 1.88 1.88 0 0 1-.73-1.42H9.57a4 4 0 0 0 .74 2.31 4.86 4.86 0 0 0 1.93 1.58 6.48 6.48 0 0 0 2.78.57A6.19 6.19 0 0 0 18 27a5 5 0 0 0 2-1.85 5.09 5.09 0 0 0 .7-2.71 5.1 5.1 0 0 0-.7-2.56 4.56 4.56 0 0 0-1.65-1.75Zm13.15-5.02a5.74 5.74 0 0 0-8.6 2.64 10.78 10.78 0 0 0-.73 4.2 10.76 10.76 0 0 0 .72 4.23A5.83 5.83 0 0 0 25 26.86a5.69 5.69 0 0 0 3.26.94 5.6 5.6 0 0 0 3.25-.93 5.8 5.8 0 0 0 2.09-2.68 11 11 0 0 0 .73-4.19 10.69 10.69 0 0 0-.73-4.19 5.8 5.8 0 0 0-2.1-2.7Zm-1.19 10.75a2.29 2.29 0 0 1-4.13 0 7.89 7.89 0 0 1-.77-3.86 7.57 7.57 0 0 1 .78-3.85 2.28 2.28 0 0 1 4.11 0 7.57 7.57 0 0 1 .78 3.85 7.78 7.78 0 0 1-.77 3.86Zm13.16 1.03 5.19-6.68v-2.04h-9.11v2.5h5.33v.08l-5.53 6.85v1.87h9.5v-2.5h-5.38v-.08zm12.52-7.23-1.4.45v-5.7h-3.13v6.71l-1.41.45v1.73l1.41-.44v6.61h3.13v-7.62l1.4-.45v-1.74z"/></svg>