<svg width="40" height="40" viewBox="0 0 40 40" fill="none" xmlns="http://www.w3.org/2000/svg">
<g clip-path="url(#clip0_108_444)">
<path d="M4.21514 26C3.38632 26 2.56317 25.895 1.7457 25.6851C0.928235 25.4641 0.235656 25.1547 -0.332031 24.7569L0.740898 22.7017C1.19505 23.0221 1.723 23.2762 2.32475 23.4641C2.92649 23.6519 3.53392 23.7459 4.14702 23.7459C4.8396 23.7459 5.38458 23.6133 5.78196 23.3481C6.17934 23.0829 6.37803 22.7182 6.37803 22.2541C6.37803 21.8122 6.20205 21.4641 5.85008 21.2099C5.49812 20.9558 4.93043 20.8287 4.14702 20.8287H2.88676V19.0552L6.20773 15.3923L6.51428 16.3536H0.26404V14.1989H8.60905V15.9392L5.3051 19.6022L3.90859 18.8232H4.70903C6.17367 18.8232 7.28066 19.1436 8.03 19.7845C8.77935 20.4254 9.15402 21.2486 9.15402 22.2541C9.15402 22.9061 8.97804 23.5193 8.62607 24.0939C8.27411 24.6575 7.73481 25.116 7.00817 25.4696C6.28153 25.8232 5.35052 26 4.21514 26Z" fill="black"/>
<path d="M15.537 26C14.5606 26 13.6864 25.768 12.9143 25.3039C12.1423 24.8287 11.5349 24.1436 11.0921 23.2486C10.6493 22.3536 10.4279 21.2707 10.4279 20C10.4279 18.7293 10.6493 17.6464 11.0921 16.7514C11.5349 15.8564 12.1423 15.1768 12.9143 14.7127C13.6864 14.2376 14.5606 14 15.537 14C16.5248 14 17.3991 14.2376 18.1598 14.7127C18.9318 15.1768 19.5392 15.8564 19.982 16.7514C20.4248 17.6464 20.6462 18.7293 20.6462 20C20.6462 21.2707 20.4248 22.3536 19.982 23.2486C19.5392 24.1436 18.9318 24.8287 18.1598 25.3039C17.3991 25.768 16.5248 26 15.537 26ZM15.537 23.7293C16.0026 23.7293 16.4056 23.6022 16.7462 23.3481C17.0982 23.0939 17.3707 22.6906 17.5637 22.1381C17.7681 21.5856 17.8702 20.8729 17.8702 20C17.8702 19.1271 17.7681 18.4144 17.5637 17.8619C17.3707 17.3094 17.0982 16.9061 16.7462 16.6519C16.4056 16.3978 16.0026 16.2707 15.537 16.2707C15.0829 16.2707 14.6798 16.3978 14.3279 16.6519C13.9873 16.9061 13.7148 17.3094 13.5104 17.8619C13.3174 18.4144 13.2209 19.1271 13.2209 20C13.2209 20.8729 13.3174 21.5856 13.5104 22.1381C13.7148 22.6906 13.9873 23.0939 14.3279 23.3481C14.6798 23.6022 15.0829 23.7293 15.537 23.7293Z" fill="black"/>
<path d="M26.6566 21.8398V20.4475H35.8361V21.8398H26.6566ZM26.6566 19.5525V18.1602H35.8361V19.5525H26.6566ZM34.7632 26C33.8321 26 32.9693 25.8564 32.1745 25.5691C31.3911 25.2707 30.7099 24.8508 30.1308 24.3094C29.5518 23.768 29.1033 23.1326 28.7854 22.4033C28.4675 21.674 28.3085 20.8729 28.3085 20C28.3085 19.1271 28.4675 18.326 28.7854 17.5967C29.1033 16.8674 29.5518 16.232 30.1308 15.6906C30.7099 15.1492 31.3911 14.7348 32.1745 14.4475C32.9693 14.1492 33.8321 14 34.7632 14C35.7963 14 36.733 14.1768 37.5732 14.5304C38.4134 14.8729 39.1116 15.3812 39.668 16.0552L37.9138 17.6464C37.5051 17.1934 37.0509 16.8564 36.5514 16.6354C36.0518 16.4033 35.5011 16.2873 34.8994 16.2873C34.3431 16.2873 33.8321 16.3757 33.3666 16.5525C32.9011 16.7293 32.4981 16.9834 32.1575 17.3149C31.8169 17.6464 31.55 18.0387 31.357 18.4917C31.1754 18.9448 31.0845 19.4475 31.0845 20C31.0845 20.5525 31.1754 21.0552 31.357 21.5083C31.55 21.9613 31.8169 22.3536 32.1575 22.6851C32.4981 23.0166 32.9011 23.2707 33.3666 23.4475C33.8321 23.6243 34.3431 23.7127 34.8994 23.7127C35.5011 23.7127 36.0518 23.6022 36.5514 23.3812C37.0509 23.1492 37.5051 22.8011 37.9138 22.337L39.668 23.9282C39.1116 24.6022 38.4134 25.116 37.5732 25.4696C36.733 25.8232 35.7963 26 34.7632 26Z" fill="black"/>
<rect x="-0.332031" y="34" width="40" height="2" rx="1" fill="black"/>
<rect x="-0.332031" y="4" width="40" height="2" rx="1" fill="black"/>
</g>
<defs>
<clipPath id="clip0_108_444">
<rect width="40" height="40" fill="white"/>
</clipPath>
</defs>
</svg>
