<svg xmlns="http://www.w3.org/2000/svg" width="283" height="553.17" viewBox="0 0 283 553.17"><path d="M208.05,445.19l7.24-.24a179.83,179.83,0,0,1-31.23-14.23,172.29,172.29,0,0,1-51.24-45.29A175.3,175.3,0,0,1,103,323.51l-1.1-4.26A270,270,0,0,1,270.37,0a274.49,274.49,0,0,0-134,39.43A281.41,281.41,0,0,0,37.78,140.14h0A279.87,279.87,0,0,0,1,304.39,219.43,219.43,0,0,0,208.05,445.19Z" fill-opacity="0.03"/><path d="M162.92,136.81l-3.66,6.34a178.84,178.84,0,0,1,77.12-40A173.75,173.75,0,0,1,283,98.62V35.54a222.7,222.7,0,0,0-61.9,34.27A230,230,0,0,0,162.92,136.81Z" fill-opacity="0.03"/><path d="M283,472.27a265.42,265.42,0,0,1-64.69,11.49A256.66,256.66,0,0,1,38,421.89,269.32,269.32,0,0,0,283,552.81Z" fill-opacity="0.03"/></svg>
