<svg xmlns="http://www.w3.org/2000/svg" xmlns:xlink="http://www.w3.org/1999/xlink" style="display:none"><symbol id="arrow-right" viewBox="0 0 24 24"><path d="M13.17 18.75a.77.77 0 01-.53-.21.75.75 0 010-1.06l4.59-4.73H5a.75.75 0 010-1.5h12.22l-4.59-4.73a.75.75 0 111.08-1l5.83 6a.64.64 0 01.13.19v.05a.81.81 0 010 .56v.05a.64.64 0 01-.13.19l-5.83 6a.78.78 0 01-.54.19z"/></symbol><symbol id="burger"><path d="M21.6 20.2H2.4a1 1 0 110-2h19.2a1 1 0 010 2zm0-7.2H2.4a1 1 0 010-2h19.2a1 1 0 010 2zm0-7.2H2.4a1 1 0 110-2h19.2a1 1 0 010 2z"/></symbol><symbol id="chevron-left" viewBox="0 0 24 24"><path d="M14.4 17.8a1 1 0 01-.71-.29l-4.8-4.8a1 1 0 010-1.42l4.8-4.8a1 1 0 011.42 1.42L11 12l4.1 4.09a1 1 0 010 1.42 1 1 0 01-.7.29z"/></symbol><symbol id="chevron-right" viewBox="0 0 24 24"><path d="M9.6 17.8a1 1 0 01-.71-.29 1 1 0 010-1.42L13 12 8.89 7.91a1 1 0 011.42-1.42l4.8 4.8a1 1 0 010 1.42l-4.8 4.8a1 1 0 01-.71.29z"/></symbol><symbol id="close"><path d="M19 20a1 1 0 01-.71-.29L12 13.41l-6.29 6.3a1 1 0 01-1.42-1.42l6.3-6.29-6.3-6.29a1 1 0 011.42-1.42l6.29 6.3 6.29-6.3a1 1 0 111.42 1.42L13.41 12l6.3 6.29a1 1 0 010 1.42A1 1 0 0119 20z"/></symbol><symbol id="facebook" viewBox="0 0 24 24"><path d="M12 2.06a10 10 0 00-1.56 19.88V15H7.9v-2.94h2.54v-2.2A3.52 3.52 0 0114.21 6a15.72 15.72 0 012.24.19v2.43h-1.26a1.45 1.45 0 00-1.63 1.56v1.88h2.77L15.89 15h-2.33v7A10 10 0 0012 2.06z"/></symbol><symbol id="instagram" viewBox="0 0 24 24"><path d="M21 8.31a6.48 6.48 0 00-.42-2.22 4.59 4.59 0 00-2.64-2.63A6.21 6.21 0 0015.71 3H8.29a6.31 6.31 0 00-2.19.42 4.6 4.6 0 00-2.63 2.67 6.8 6.8 0 00-.42 2.18v7.42a6.81 6.81 0 00.42 2.19 4.59 4.59 0 002.64 2.63 6.24 6.24 0 002.18.49H12c2.44 0 2.76 0 3.71-.06a6.31 6.31 0 002.19-.42 4.57 4.57 0 002.63-2.63 6.81 6.81 0 00.47-2.17c0-1 .05-1.26.05-3.71S21 9.26 21 8.31zm-9 8.29a4.62 4.62 0 114.62-4.6A4.62 4.62 0 0112 16.6zm4.8-8.34a1.08 1.08 0 111.08-1.07 1.07 1.07 0 01-1.08 1.07z"/><path d="M12 15a3 3 0 10-3-3 3 3 0 003 3z"/></symbol><symbol id="linkedin" viewBox="0 0 24 24"><path d="M20 3H4a1 1 0 00-1 1v16a1 1 0 001 1h16a1 1 0 001-1V4a1 1 0 00-1-1zM8.34 18.34H5.67V9.75h2.67zM7 8.57A1.55 1.55 0 118.55 7 1.55 1.55 0 017 8.57zm11.34 9.77h-2.67v-4.18c0-1 0-2.28-1.39-2.28s-1.6 1.09-1.6 2.21v4.25H10V9.75h2.56v1.17a2.82 2.82 0 012.52-1.39c2.71 0 3.21 1.78 3.21 4.1v4.71z"/></symbol><symbol id="quotes"><path d="M24 2.43q-4.84-.78-7.19 1.86t-2.35 7.76v9.69H24v-9.69h-4.91a5.67 5.67 0 01.7-4.17 3.74 3.74 0 013.65-1.39zm-14.46 0q-4.83-.78-7.19 1.86T0 12.05v9.69h9.54v-9.69H4.63a5.72 5.72 0 01.7-4.17A3.75 3.75 0 019 6.49z"/></symbol><symbol id="telegram" viewBox="0 0 24 24"><path d="M12.6 16.76l-1.6 1.5-.58.55a.94.94 0 01-.68.26c0-.27 0-.54.05-.81.07-1.06.15-2.12.23-3.18a.51.51 0 01.15-.31l7.36-6.61a2.61 2.61 0 00.23-.24.15.15 0 00.05-.15s-.11-.1-.16-.08a2.67 2.67 0 00-.54.19c-.82.5-1.63 1-2.45 1.53l-6.74 4.25a.43.43 0 01-.38.05l-3.79-1.18a2.91 2.91 0 01-.48-.21c-.33-.21-.37-.52-.06-.76a2.52 2.52 0 01.68-.38l3.94-1.51 11.85-4.54.22-.08a.79.79 0 011.1.79 5.85 5.85 0 01-.16 1.09q-1.28 6-2.57 12a2.46 2.46 0 01-.23.66.67.67 0 01-.84.35 1.78 1.78 0 01-.58-.26c-1.29-.93-2.56-1.87-3.85-2.81z"/></symbol><symbol id="youtube" viewBox="0 0 24 24"><path d="M17 4H7a4.72 4.72 0 00-5 5v6a4.72 4.72 0 005 5h10a4.72 4.72 0 005-5V9a4.72 4.72 0 00-5-5zm-3.11 9l-2.47 1.48c-1 .6-1.82.14-1.82-1v-3c0-1.17.82-1.63 1.82-1L13.89 11a1.11 1.11 0 010 2z"/></symbol></svg>